<?xml version="1.0" encoding="utf-8"?>
<!-- Generator: Adobe Illustrator 24.0.1, SVG Export Plug-In . SVG Version: 6.00 Build 0)  -->
<svg version="1.1" id="Logo-countries-comexport" xmlns="http://www.w3.org/2000/svg" xmlns:xlink="http://www.w3.org/1999/xlink"
	 x="0px" y="0px" viewBox="0 0 6422 768" style="enable-background:new 0 0 6422 768;" xml:space="preserve">
<g>
	<path d="M3382.63,274.85c24.53,4.17,44.79,15.96,62.33,33.33c16.05,15.9,41.3,15.41,57.06-0.48c15.62-15.75,15.91-41.4,0.07-57.18
		c-46.83-46.66-103.24-65.94-168.58-56.06c-92.62,14.01-161.13,95.07-161.29,192.75c-0.17,13.29,1.96,29.75,6.25,45.93
		c20.66,77.87,87.02,134.5,167.32,141.94c61.23,5.68,113.25-14.72,156.6-57.86c12.27-12.21,14.85-31.37,6.91-46.7
		c-8.13-15.69-25.15-24.24-42.47-21.63c-10.81,1.62-18.73,7.77-26.38,15.02c-25.63,24.29-56.3,34.52-91.2,29.9
		c-65.04-8.61-107.89-71.79-92.74-135.77C3269.86,301.72,3325.4,265.12,3382.63,274.85z"/>
	<path d="M4256.27,244.33c-0.07-18.9-11.53-34.16-29.49-39.45c-17.26-5.08-31.21,0.85-43.37,13.08
		c-27.25,27.41-54.65,54.67-81.92,82.06c-7.24,7.28-14.25,14.79-22.18,23.05c-22.9-23.12-44.87-45.29-67.39-68.02
		c-0.09,1.47-0.19,2.25-0.19,3.03c-0.02,36.16-0.08,72.32,0.07,108.48c0.01,1.99,1.29,4.43,2.75,5.9
		c20.63,20.84,41.39,41.55,62.14,62.27c0.89,0.89,1.95,1.62,3.5,2.9c31.35-31.41,62.48-62.61,94.35-94.56c0,17.29,0,33.61,0,49.93
		c0,43.33-0.07,86.65,0.03,129.98c0.06,25,22.22,44.01,46.62,40.27c20.76-3.19,35.06-19.97,35.08-41.47
		c0.05-64.32,0.02-128.64,0.02-192.96C4256.31,300.65,4256.38,272.49,4256.27,244.33z"/>
	<path d="M3761.18,471.1c-15.32,12.1-33.17,18.66-52.55,21.37c0,27.31,0,54.33,0,81.38c97.94-5.49,186.62-92.77,177.72-206.74
		c-8.26-105.6-97.64-173.09-178.15-175.6c0,2.2,0,4.02,0,5.84c0,22.49,0,44.98,0,67.47c0,7.58,0.05,7.39,7.3,9
		c46.56,10.36,76.99,38.58,87.27,84.99C3812.82,404.17,3797.78,442.18,3761.18,471.1z"/>
	<path d="M3680.26,573.49c0-26.93,0-53.85,0-81.07c-59.33-9.22-93.71-57.27-96.04-104.33c-2.72-54.94,36.23-106.78,95.89-115.7
		c0-27.01,0-54.04,0-81.09c-93.03,5.6-180.75,86.27-177.12,197.19C3506.68,501.67,3600.13,570.41,3680.26,573.49z"/>
	<path d="M3902.64,522.07c0.06,26.5,22.13,45.1,48.28,40.96c18.99-3.01,33.41-20.24,33.44-40.35c0.08-48.33,0.03-96.66,0.03-144.98
		c-0.01,0-0.02,0-0.04,0c0-48.66,0.02-97.32-0.07-145.98c0-2.15-0.42-4.85-1.73-6.34c-3.95-4.49-8.16-8.85-12.77-12.65
		c-9.75-8.01-21.04-11.5-33.57-8.88c-20.86,4.37-33.56,20.3-33.58,41.76c-0.04,45-0.02,89.99-0.02,134.99
		C3902.61,427.74,3902.53,474.91,3902.64,522.07z"/>
	<path d="M5768.96,366.98c-11.12,1.59-22.59,0.85-33.9,1.06c-5.95,0.11-11.9,0.02-17.76,0.02c-0.32,1.01-0.59,1.47-0.59,1.93
		c-0.03,26.17-0.07,52.33,0.04,78.5c0.01,1.44,0.96,3.19,2.02,4.25c33.53,33.63,67.02,67.31,100.79,100.7
		c9.65,9.54,21.93,12.59,35.12,10c15.88-3.11,26.76-12.75,31.34-28.25c4.74-16.04,0.52-30.2-11.41-42.05
		c-17.38-17.27-34.68-34.62-52-51.94c-1.34-1.34-2.58-2.77-4.04-4.34c1.2-0.73,1.76-1.08,2.33-1.41
		c48.36-27.72,71.95-79.22,61.39-134.05c-9.62-49.94-53.87-91.91-104.14-97.05c-19.8-2.03-39.92-0.98-59.9-1.3
		c-0.42-0.01-0.85,0.4-1.25,0.61c0,27.35,0,54.6,0,82.27c2.13,0,3.93,0,5.73,0c13.17,0,26.33-0.11,39.5,0.03
		c20.95,0.22,38.27,16.62,40.1,37.79C5804.11,344.26,5789.45,364.06,5768.96,366.98z"/>
	<path d="M5419.84,488.3c-3.5,0.79-7.03,1.46-10.46,2.17c0,27.32,0,54.09,0,81.24c104.44-6.81,191.9-100.83,176.79-216.93
		c-7.01-53.85-33.36-97.08-76.91-129.46c-29.49-21.93-62.8-34-99.52-36.53c-0.33,1.24-0.57,1.71-0.57,2.18
		c-0.04,25.33-0.02,50.66-0.14,75.99c-0.01,3.3,1.86,3.67,4.39,4.04c49.76,7.35,89.46,50.39,92.96,100.72
		C5510.25,427.17,5473.99,476.02,5419.84,488.3z"/>
	<path d="M5381.21,270.35c0-27.2,0-53.97,0-81.14c-88.3,4.48-178.09,80.65-177.41,192.12c0.69,113.14,92.93,186.31,177.42,189.89
		c0-26.96,0-53.91,0-80.83c-58.51-8.08-94.13-58.37-95.98-103.76c-1-24.61,4.63-47.31,18.42-67.7
		C5322.28,291.39,5348.49,275.51,5381.21,270.35z"/>
	<path d="M5082.59,367.22c-4.7,0.85-9.6,0.78-14.42,0.83c-12.29,0.11-24.57,0.04-37.05,0.04c0,27.89,0,55.26,0,82.95
		c12.17,0,24,0.32,35.8-0.09c10.95-0.39,22.13-0.32,32.76-2.58c68.36-14.55,110.02-78.29,96.65-147.04
		c-10.5-54.01-60.14-96.51-115.04-98.19c-15.65-0.48-31.32-0.18-46.98-0.19c-1.09,0-2.18,0.35-3.37,0.56c0,27.43,0,54.54,0,82.45
		c15.12,0,29.76-0.05,44.39,0.01c21.54,0.1,38.93,15.95,41.05,37.31C5118.43,344.14,5103.79,363.37,5082.59,367.22z"/>
	<path d="M4282.53,524.87c0.16,25.55,24.86,44.32,49.69,38.44c19.29-4.57,31.78-20.58,31.82-41.24
		c0.08-41.83,0.03-83.66,0.03-125.49c0-49.99,0-99.99,0-149.98c0-16.91-6.8-30.19-21.89-38.19c-27.3-14.48-59.59,5-59.71,36
		c-0.19,46.49-0.05,92.99-0.05,139.49c0.01,0,0.02,0,0.03,0C4282.45,430.88,4282.24,477.87,4282.53,524.87z"/>
	<path d="M5624.75,557.81c13.46,8.57,27.78,9.07,41.74,1.32c13.75-7.63,20.95-19.74,20.98-35.58c0.11-46.49,0.04-92.99,0.04-139.48
		c0-46.49,0.13-92.99-0.04-139.48c-0.11-27.89-26.31-47.2-52.69-39.19c-17.69,5.37-28.86,21.13-28.88,41.02
		c-0.05,41.66-0.02,83.32-0.02,124.98c0,49.99,0.02,99.99-0.01,149.98C5605.86,536.82,5611.61,549.44,5624.75,557.81z"/>
	<path d="M5001.48,244.1c-0.18-31.59-34.01-50.76-61.26-34.82c-13.83,8.08-20.22,20.71-20.22,36.64
		c-0.01,91.99-0.01,183.98,0.01,275.97c0,2.16,0.17,4.33,0.37,6.48c2.26,23.47,26.12,40.54,49.03,35.09
		c19.68-4.68,32.1-20.35,32.13-40.89c0.07-46.16,0.02-92.32,0.02-138.48C5001.55,337.42,5001.75,290.76,5001.48,244.1z"/>
	<path d="M6116.44,285.17c3.65-0.01,7.39,0.03,10.94-0.68c21.06-4.24,34.73-22.64,32.97-44.07c-1.68-20.38-19.01-36.59-40.5-36.67
		c-69.64-0.24-139.29-0.19-208.93-0.02c-18.01,0.05-33.04,11.27-38.37,27.54c-8.8,26.87,10.16,53.67,38.47,53.86
		c34.82,0.24,69.64,0.06,104.47,0.06C6049.13,285.2,6082.79,285.22,6116.44,285.17z"/>
	<path d="M5974.6,523.66c0.17,27.29,25.87,46.52,52,39.22c17.98-5.02,29.68-21.22,29.69-41.41c0.04-67.45,0.01-134.9,0.01-202.35
		c0-1.61,0-3.22,0-5.1c-27.43,0-54.2,0-81.76,0c0,2.2,0,4,0,5.79c0,34.81,0,69.61,0,104.42
		C5974.55,457.38,5974.4,490.52,5974.6,523.66z"/>
	<path d="M4499.94,285.73c3.29-0.01,6.66-0.5,9.86-1.31c20.46-5.13,33.06-23.89,30.57-45.27c-2.28-19.58-19.92-34.96-40.46-35.02
		c-34.47-0.09-68.94-0.03-103.42-0.02c-1.58,0-3.16,0.14-4.79,0.21c0,27.27,0,53.9,0,81.13c1.72,0.14,3.01,0.34,4.31,0.34
		C4430.66,285.81,4465.3,285.83,4499.94,285.73z"/>
	<path d="M4537.24,367.12c-7.09-16.43-20.54-24.52-38.34-24.63c-33.97-0.2-67.94-0.07-101.9-0.06c-1.74,0-3.48,0.23-5.29,0.36
		c0,27.24,0,53.85,0,81.01c1.25,0.14,2.05,0.3,2.85,0.3c35.8-0.01,71.6,0.09,107.4-0.12c11-0.07,20.42-4.69,27.75-12.83
		C4541.42,398.16,4544.11,383.05,4537.24,367.12z"/>
	<path d="M4500.4,483.07c-34.79-0.12-69.59-0.05-104.38-0.03c-1.41,0-2.83,0.23-4.31,0.37c0,27.12,0,53.74,0,80.91
		c1.58,0.12,2.72,0.29,3.85,0.29c34.63,0.02,69.25,0.04,103.88-0.02c2.98,0,6.01-0.29,8.92-0.9c20.78-4.31,34.08-23.15,32.03-45.18
		C4538.59,499.06,4520.8,483.14,4500.4,483.07z"/>
	<path d="M6323.62,244.22c-59.39-109.24-152.21-167-276.55-167.38c-371.49-1.13-742.99-0.41-1114.48-0.41c-2.67,0-5.34-0.11-8,0.01
		c-17.03,0.75-30.81,6.83-41.29,21.31c-51.37,70.99-103.19,141.64-154.87,212.4c-0.72,0.99-1.61,1.86-2.57,2.95
		c-0.87-1.13-1.5-1.89-2.08-2.69c-21.91-30.21-43.76-60.46-65.73-90.62c-10.02-13.76-23.76-20.05-40.49-17.04
		c-30.81,5.54-44.03,39.46-25.65,64.89c26.83,37.13,53.72,74.21,80.74,111.21c2.29,3.14,2.13,5.08-0.1,8.12
		c-52.22,71.4-104.36,142.86-156.39,214.4c-2.25,3.09-4.74,3.53-8.07,3.53c-149.02-0.02-757.66-0.02-1465.57-0.03V163.35
		c808.58,0,1532.71,0,1729.38,0c2.17,0,4.33-0.03,6.49-0.17c28.89-1.83,47.92-31.73,37.38-58.7c-7.13-18.25-22.63-27.98-44.63-27.98
		c-445.99,0-3882.99,0-4328.98,0c-22.67,0-45.33,0.06-68-0.02c-48.08-0.18-93.84,9.99-137.06,31.06
		C115.3,166.95,46.38,299.07,68.54,432.87c15.67,94.61,65.8,166.74,147.68,216.3c49.48,29.95,103.82,42.63,161.59,42.6
		c384.99-0.17,3760.99-0.12,4145.98,0.02c18.15,0.01,32.24-6.6,42.84-21.14c42.69-58.56,85.39-117.1,128.1-175.64
		c10.2-13.98,20.42-27.94,31.12-42.58c2.2,3.02,3.96,5.43,5.72,7.84c21.43,29.52,42.61,59.23,64.38,88.5
		c14.06,18.91,41.12,21.26,58.96,5.89c16.42-14.14,18.66-37.67,5.16-56.33c-26.85-37.12-53.77-74.18-80.79-111.18
		c-2.22-3.04-2.32-5.01-0.04-8.12c51.55-70.44,103-140.95,154.34-211.55c2.38-3.27,4.8-4.3,8.64-4.3
		c367.66,0.07,735.32,0.06,1102.98,0.09c21.56,0,42.83,2.45,63.71,8.15c105,28.63,173.88,131.97,159.79,240.38
		c-7.65,58.85-34.85,107.13-80.91,144.38c-41.77,33.78-90.08,48.72-143.64,48.71c-455.66-0.13-911.32-0.08-1366.98-0.07
		c-4,0-8.01-0.07-12,0.14c-19.19,0.99-35.7,15.11-39.62,33.78c-4.11,19.58,5.08,39,22.39,47.99c8.96,4.65,18.5,4.92,28.21,4.92
		c455.33-0.02,910.65,0,1365.98-0.12c15.13,0,30.34-0.74,45.36-2.47c53.42-6.14,102.04-25.24,144.9-57.61
		c74.82-56.53,116.66-131.76,124.14-225.44C6361.08,349.03,6350.88,294.36,6323.62,244.22z M341.89,486.49
		c21.96,25.84,48.45,38.76,79.45,38.76c26.48,0,48.28-7.75,65.4-23.26c17.44-15.5,27.29-36.17,29.55-62.01h19.38
		c-2.59,31.33-14.38,56.37-35.37,75.09c-20.67,18.74-46.99,28.1-78.97,28.1c-36.5,0-67.51-14.69-93.02-44.09
		c-25.84-29.39-38.76-64.92-38.76-106.58c0-41.66,12.91-77.35,38.76-107.07c25.51-29.39,56.52-44.09,93.02-44.09
		c30.04,0,55.39,8.08,76.06,24.22c20.67,15.83,33.43,37.15,38.27,63.95H516.3c-3.56-20.02-14.38-36.65-32.46-49.9
		c-17.77-13.24-38.6-19.86-62.5-19.86c-31.01,0-57.49,12.92-79.45,38.76c-21.97,26.16-32.94,57.49-32.94,93.99
		C308.94,429,319.92,460.33,341.89,486.49z M843.7,499.09c-23.25,26.81-54.26,40.21-93.02,40.21s-69.76-13.4-93.02-40.21
		c-23.25-26.8-34.88-62.33-34.88-106.58c0-45.86,11.63-82.52,34.88-109.98c23.25-27.45,54.26-41.18,93.02-41.18
		s69.76,13.73,93.02,41.18c23.25,27.46,34.88,64.12,34.88,109.98C878.58,436.76,866.96,472.28,843.7,499.09z M1194.85,443.86
		c0,27.46-10.17,50.87-30.52,70.25c-20.35,19.38-44.9,29.07-73.64,29.07c-29.72,0-55.23-9.69-76.55-29.07
		c-21-19.38-31.49-42.79-31.49-70.25V248.61h19.38v195.24c0,22.61,8.72,41.83,26.16,57.65c17.12,15.83,37.95,23.74,62.5,23.74
		c23.25,0,43.28-7.91,60.07-23.74c16.47-15.82,24.71-35.04,24.71-57.65V248.61h19.38V443.86z M1533.88,535.91h-26.65l-173.44-259.68
		v259.68h-19.38V248.61h26.65l173.44,263.55V248.61h19.38V535.91z M1846.26,267.51h-99.32v268.4h-19.38v-268.4h-98.35v-18.89h217.04
		V267.51z M2133.94,426.41c7.43,17.12,11.14,37.79,11.14,62.01c0,13.56,0.32,23.74,0.97,30.52c0.64,8.08,1.94,13.73,3.88,16.96
		h-19.38c-3.23-3.88-5.33-10.98-6.3-21.32l-1.45-41.18c0-19.38-4.69-36.01-14.05-49.9c-9.05-13.56-20.19-20.35-33.43-20.35h-114.34
		v132.75h-19.38V248.61h137.11c19.7,0,36.49,7.43,50.39,22.29c13.88,14.53,20.83,32.3,20.83,53.29c0,18.41-4.2,34.4-12.6,47.96
		c-8.72,13.56-19.55,21.48-32.46,23.74C2116.81,399.13,2126.5,409.3,2133.94,426.41z M2282.57,535.91h-19.38V248.61h19.38V535.91z
		 M2594.47,267.51h-168.11v110.46h153.58v17.93h-153.58v121.6h168.11v18.41h-187.49V248.61h187.49V267.51z M2850.65,518.46
		c-21,16.47-46.35,24.71-76.06,24.71c-27.78,0-51.35-9.36-70.73-28.1c-19.7-18.41-29.55-40.85-29.55-67.34h19.38
		c0,21.32,7.91,39.57,23.74,54.74c15.82,15.19,34.88,22.77,57.17,22.77c24.22,0,45.06-6.46,62.5-19.38
		c17.12-12.92,25.68-28.58,25.68-46.99c0-15.82-7.59-29.07-22.77-39.73c-14.86-10.66-34.88-17.12-60.07-19.38
		c-30.69-2.58-55.23-11.3-73.64-26.16c-18.41-14.85-27.61-33.1-27.61-54.75c0-21.32,9.36-39.56,28.1-54.75
		c18.73-15.18,41.34-22.77,67.83-22.77c28.42,0,52.81,7.92,73.16,23.74c20.02,15.83,30.04,34.88,30.04,57.17h-19.38
		c0-17.12-8.24-31.81-24.71-44.09c-16.15-12.27-35.85-18.41-59.11-18.41c-21,0-39.08,5.81-54.26,17.44
		c-14.86,11.31-22.29,25.19-22.29,41.66c0,16.15,7.75,29.72,23.25,40.7c15.82,10.98,36.65,17.61,62.5,19.86
		c29.71,2.59,53.61,11.14,71.7,25.68c17.76,14.53,26.65,32.46,26.65,53.78C2882.14,482.13,2871.64,501.99,2850.65,518.46z"/>
	<path d="M750.68,259.76c-32.94,0-59.27,12.11-78.97,36.34c-19.7,24.22-29.55,56.37-29.55,96.41c0,39.08,9.85,70.25,29.55,93.5
		c19.7,23.58,46.02,35.37,78.97,35.37c32.94,0,59.26-11.79,78.97-35.37c19.7-23.26,29.55-54.42,29.55-93.5
		c0-40.04-9.86-72.19-29.55-96.41C809.95,271.87,783.63,259.76,750.68,259.76z"/>
	<path d="M2114.56,284.46c-10.98-11.3-24.06-16.96-39.24-16.96h-114.34v117.73h114.34c15.18,0,28.26-5.81,39.24-17.44
		c10.66-11.3,15.99-25.19,15.99-41.66C2130.54,309.98,2125.21,296.09,2114.56,284.46z"/>
</g>
</svg>
